<svg xmlns="http://www.w3.org/2000/svg" xmlns:xlink="http://www.w3.org/1999/xlink" width="140.508" height="44" viewBox="0 0 140.508 44"><defs><clipPath id="a"><rect width="140.508" height="44" fill="none"/></clipPath></defs><path d="M0,5.552,12.169,24.128,0,42.7l4.485,2.938L18.578,24.128,4.485,2.614Z" transform="translate(0 -1.826)" fill="#fff"/><g clip-path="url(#a)"><path d="M97.868,45.655a21.5,21.5,0,1,1,0-43.005V8.011a16.142,16.142,0,1,0,0,32.283Z" transform="translate(-53.349 -1.851)" fill="#fff"/><path d="M199.085.968h2.626V19.007h-2.626V10.863h-9.02v8.144h-2.626V.968h2.626v7.72h9.02Z" transform="translate(-130.945 -0.676)" fill="#fff"/><path d="M247.819,1.618a1.645,1.645,0,0,1,3.289,0,1.646,1.646,0,0,1-3.289,0m.4,3.608h2.441V18.331h-2.441Z" transform="translate(-173.127)" fill="#fff"/><path d="M270.615,29.829V16.724H272.9v3.794h.08c.69-3.21,1.91-4.059,3.82-4.059a5.771,5.771,0,0,1,1.38.159l.133,2.414a8.357,8.357,0,0,0-1.486-.133c-2.414,0-3.767,1.433-3.767,3.979v6.951Z" transform="translate(-189.052 -11.498)" fill="#fff"/><path d="M302.476,1.618a1.645,1.645,0,0,1,3.289,0,1.646,1.646,0,0,1-3.289,0m.4,3.608h2.441V18.331h-2.441Z" transform="translate(-211.31)" fill="#fff"/><path d="M325.272,29.768V16.663h2.308v3.316h.08c.5-2.44,1.963-3.608,4.165-3.608,2.892,0,4.537,1.671,4.537,5.253v8.144H333.92V21.783c0-2.043-.982-3.237-2.971-3.237a2.911,2.911,0,0,0-3.236,3.237v7.985Z" transform="translate(-227.235 -11.437)" fill="#fff"/><path d="M382.9,31.081c0,3.024-2.945,4.536-7.03,4.536-4.059,0-6.234-1.008-6.234-3.1,0-1.459,1.034-2.361,3.422-2.653a7.216,7.216,0,0,1-.875-.186,1.837,1.837,0,0,1-1.406-1.831c0-1.194,1.035-2.043,3.051-2.149a4,4,0,0,1-3.29-4.059c0-2.255,1.7-4.3,6.208-4.3h5.544v2.149h-.61c-.663-.769-1.592-1.114-4.112-1.114l-.027.053c2.706.584,3.5,1.91,3.5,3.316,0,2.626-2.175,4.218-5.12,4.218a9.492,9.492,0,0,1-1.539-.133c-1.034.133-1.379.61-1.379,1.141s.318.823,1.247.849c.849,0,2.759-.133,4.006-.133,3.1.026,4.643,1.061,4.643,3.4m-2.52.318c0-1.008-.716-1.539-2.52-1.539-1.141-.027-2.626.08-3.767.053h-.106c-1.194.212-1.884.8-1.884,1.671,0,1.353,1.459,1.963,3.873,1.963,2.573,0,4.4-.716,4.4-2.149m-4.536-7.348c1.83,0,2.732-.875,2.732-2.388s-.9-2.387-2.732-2.387-2.786.876-2.786,2.387.955,2.388,2.786,2.388" transform="translate(-258.225 -12.113)" fill="#fff"/><path d="M184.1,93.658c0-5.969,3.422-9.285,8.383-9.285a7.4,7.4,0,0,1,7.64,6.579l-2.626.557c-.584-3.236-2.388-4.775-5.147-4.775-3.4,0-5.571,2.547-5.571,6.924,0,4.351,2.2,6.924,5.545,6.924,2.812,0,4.828-1.7,5.226-5.252l2.626.61a7.523,7.523,0,0,1-7.906,7c-4.8,0-8.171-3.343-8.171-9.285" transform="translate(-128.609 -58.943)" fill="#fff"/><path d="M244.3,107.413c0-4.483,2.865-6.844,6.473-6.844,3.582,0,6.42,2.361,6.42,6.844,0,4.457-2.839,6.818-6.42,6.818-3.608,0-6.473-2.361-6.473-6.818m10.346,0c0-3-1.539-4.669-3.873-4.669s-3.9,1.672-3.9,4.669c0,2.971,1.565,4.669,3.9,4.669s3.873-1.7,3.873-4.669" transform="translate(-170.667 -70.258)" fill="#fff"/><path d="M295.434,96.572c0-4.51,2.335-6.712,5.332-6.712a4.206,4.206,0,0,1,4.616,3.767h.053V85.165h2.414V103.2h-2.414V99.411h-.053c-.69,2.706-2.043,4.059-4.43,4.059-3.051,0-5.518-2.335-5.518-6.9m9.922,0c0-3.051-1.486-4.589-3.687-4.589-2.175,0-3.661,1.512-3.661,4.589,0,3.183,1.539,4.749,3.661,4.749,2.149,0,3.687-1.592,3.687-4.749" transform="translate(-206.391 -59.496)" fill="#fff"/><path d="M359.591,107.572h-9.418c.027,3.13,1.247,4.616,3.661,4.616a3.119,3.119,0,0,0,3.449-2.626l2.255.557c-.5,2.52-2.52,4.112-5.757,4.112-3.979,0-6.155-2.441-6.155-6.552,0-4.218,2.308-7.11,6.287-7.11,3.608,0,5.7,2.282,5.7,6.367,0,.424-.027.5-.027.637m-9.285-1.7h6.712c-.053-2.043-1.194-3.316-3.21-3.316-1.91,0-3.13,1.141-3.5,3.316" transform="translate(-242.853 -70.257)" fill="#fff"/><path d="M397.973,114.027V100.922h2.281v3.794h.08c.69-3.21,1.91-4.059,3.82-4.059a5.77,5.77,0,0,1,1.38.159l.133,2.414a8.357,8.357,0,0,0-1.486-.133c-2.414,0-3.767,1.433-3.767,3.979v6.951Z" transform="translate(-278.024 -70.319)" fill="#fff"/><path d="M428.338,109.942l2.52-.53a2.979,2.979,0,0,0,3.289,2.918c2.043,0,3.1-.8,3.1-2.122,0-1.273-1.008-1.618-2.679-1.883l-2.1-.318c-1.8-.319-3.714-1.061-3.714-3.422,0-2.467,2.175-3.926,5.12-3.926,2.759,0,5.041,1.326,5.359,3.926l-2.414.53a2.721,2.721,0,0,0-3.051-2.52c-1.459,0-2.52.61-2.52,1.8,0,1.114.875,1.433,2.149,1.645l1.91.292c2.2.371,4.431.9,4.431,3.581,0,2.839-2.149,4.377-5.518,4.377-3.343,0-5.677-1.459-5.889-4.351" transform="translate(-299.237 -70.319)" fill="#fff"/></g></svg>